<?xml version="1.0" encoding="utf-8"?>
<!-- Svg Vector Icons : http://www.onlinewebfonts.com/icon -->
<!DOCTYPE svg PUBLIC "-//W3C//DTD SVG 1.1//EN" "http://www.w3.org/Graphics/SVG/1.1/DTD/svg11.dtd">
<svg version="1.1" xmlns="http://www.w3.org/2000/svg" xmlns:xlink="http://www.w3.org/1999/xlink" x="0px" y="0px" viewBox="0 0 256 256" enable-background="new 0 0 256 256" xml:space="preserve">
<metadata> Svg Vector Icons : http://www.onlinewebfonts.com/icon </metadata>
<g><g><g><g><g><path fill="#000000" d="M128,10C62.8,10,10,62.8,10,128c0,65.2,52.8,118,118,118c65.2,0,118-52.8,118-118C246,62.8,193.2,10,128,10z M128,230.3c-56.4,0-102.3-45.9-102.3-102.3C25.7,71.6,71.6,25.7,128,25.7c56.4,0,102.3,45.9,102.3,102.3C230.3,184.4,184.4,230.3,128,230.3z"/><path fill="#000000" d="M190.9,120.1h-55V65.1c0-4.3-3.5-7.9-7.9-7.9c-4.3,0-7.9,3.5-7.9,7.9v55.1H65.1c-4.3,0-7.9,3.5-7.9,7.9c0,4.3,3.5,7.9,7.9,7.9h55.1V191c0,4.3,3.5,7.9,7.9,7.9c4.3,0,7.9-3.5,7.9-7.9v-55.1H191c4.3,0,7.9-3.5,7.9-7.9C198.8,123.7,195.3,120.1,190.9,120.1z"/></g></g></g><g></g><g></g><g></g><g></g><g></g><g></g><g></g><g></g><g></g><g></g><g></g><g></g><g></g><g></g><g></g></g></g>
</svg>